<svg width="48" height="48" viewBox="0 0 48 48" fill="none" xmlns="http://www.w3.org/2000/svg">
<circle cx="24" cy="24" r="23.2941" fill="white" stroke="#EEEEEE" stroke-width="1.41176"/>
<path fill-rule="evenodd" clip-rule="evenodd" d="M35.3226 24.2842C35.3226 23.449 35.2477 22.6459 35.1085 21.875H24.0156V26.431H30.3544C30.0814 27.9033 29.2515 29.1507 28.0041 29.9859V32.9411H31.8106C34.0378 30.8906 35.3226 27.8712 35.3226 24.2842Z" fill="#4285F4"/>
<path fill-rule="evenodd" clip-rule="evenodd" d="M24.0161 35.7942C27.1962 35.7942 29.8624 34.7395 31.8111 32.9407L28.0046 29.9854C26.9499 30.6921 25.6008 31.1097 24.0161 31.1097C20.9484 31.1097 18.3519 29.0378 17.4257 26.2539H13.4907V29.3055C15.4288 33.1548 19.4119 35.7942 24.0161 35.7942Z" fill="#34A853"/>
<path fill-rule="evenodd" clip-rule="evenodd" d="M17.4255 26.2539C17.19 25.5472 17.0561 24.7923 17.0561 24.016C17.0561 23.2397 17.19 22.4849 17.4255 21.7782V18.7266H13.4906C12.6929 20.3166 12.2378 22.1155 12.2378 24.016C12.2378 25.9166 12.6929 27.7154 13.4906 29.3055L17.4255 26.2539Z" fill="#FBBC05"/>
<path fill-rule="evenodd" clip-rule="evenodd" d="M24.0161 16.9228C25.7454 16.9228 27.2979 17.517 28.5186 18.6841L31.8968 15.306C29.857 13.4054 27.1909 12.2383 24.0161 12.2383C19.4119 12.2383 15.4288 14.8777 13.4907 18.727L17.4257 21.7786C18.3519 18.9947 20.9484 16.9228 24.0161 16.9228Z" fill="#EA4335"/>
</svg>
