<svg width="98" height="99" viewBox="0 0 98 99" fill="none" xmlns="http://www.w3.org/2000/svg">
<path d="M66 12.5L73.5 20L91.5 2" stroke="#1C2C80" stroke-width="4" stroke-linecap="round" stroke-linejoin="round"/>
<path d="M70.9096 44.8224C67.1842 43.9137 59.0791 44.2227 56.4623 52.7275C54.2815 51.092 48.7207 49.1293 43.9231 54.3631C44.2865 53.0001 44.5773 49.6745 42.8327 47.2757C42.4692 46.2762 41.9604 43.8956 42.8327 42.369H47.7394C48.2846 42.4599 49.702 42.26 51.0105 40.7335L53.7364 37.735C54.2816 37.099 55.0994 35.7178 54.009 35.2817C55.0994 34.373 56.4623 32.1196 53.1912 30.375C50.3744 28.4669 43.3234 26.5043 37.6535 33.9187C34.8368 37.4624 27.613 44.9805 27.2951 54.9082C27.3859 56.3621 27.3496 59.6513 26.4773 61.1778C25.3869 63.086 28.3854 65.8119 31.9291 67.1748C38.8348 69.9916 56.5169 73.9351 72 67.1748" stroke="#1C2C80" stroke-width="4" stroke-linecap="round" stroke-linejoin="round"/>
<path d="M48.109 35.9476C49.0338 37.6387 51.4111 37.2881 54.5 34.5003" stroke="#1C2C80" stroke-width="4" stroke-linecap="round" stroke-linejoin="round"/>
<path d="M88.8239 25.0389C94.5149 34.1184 96.9324 44.8701 95.6757 55.5119C94.419 66.1536 89.5636 76.0465 81.9143 83.5507C74.2649 91.0549 64.2809 95.72 53.6171 96.7727C42.9532 97.8253 32.2498 95.2024 23.2809 89.3386C14.3119 83.4748 7.61598 74.7222 4.30287 64.5316C0.989767 54.3409 1.25842 43.3241 5.06431 33.307C8.8702 23.29 15.9848 14.8742 25.2289 9.45454C34.473 4.03488 45.2915 1.93678 55.8914 3.50798" stroke="#1C2C80" stroke-width="4" stroke-linecap="round" stroke-linejoin="round"/>
</svg>
