<svg width="20" height="22" viewBox="0 0 20 22" xmlns="http://www.w3.org/2000/svg">
<path d="M2.89256 22C2.08448 22 1.40037 21.7204 0.84022 21.1612C0.280073 20.6021 0 19.9192 0 19.1125V15.675H3.49862V0L5.15151 1.65L6.80441 0L8.42975 1.65L10.0826 0L11.7355 1.65L13.3884 0L15.0413 1.65L16.6942 0L18.3471 1.65L20 0V19.1125C20 19.9192 19.7199 20.6021 19.1598 21.1612C18.5996 21.7204 17.9155 22 17.1074 22H2.89256ZM17.1074 20.35C17.4747 20.35 17.7732 20.2354 18.0028 20.0063C18.2323 19.7771 18.3471 19.4792 18.3471 19.1125V2.75H5.15151V15.675H15.8678V19.1125C15.8678 19.4792 15.9826 19.7771 16.2121 20.0063C16.4417 20.2354 16.7401 20.35 17.1074 20.35ZM6.61157 7.095V5.445H13.2231V7.095H6.61157ZM6.61157 10.78V9.13H13.2231V10.78H6.61157ZM15.7851 7.095C15.5647 7.095 15.3719 7.0125 15.2066 6.8475C15.0413 6.6825 14.9587 6.49 14.9587 6.27C14.9587 6.05 15.0413 5.8575 15.2066 5.6925C15.3719 5.5275 15.5647 5.445 15.7851 5.445C16.0055 5.445 16.1983 5.5275 16.3636 5.6925C16.5289 5.8575 16.6116 6.05 16.6116 6.27C16.6116 6.49 16.5289 6.6825 16.3636 6.8475C16.1983 7.0125 16.0055 7.095 15.7851 7.095ZM15.7851 10.6425C15.5647 10.6425 15.3719 10.56 15.2066 10.395C15.0413 10.23 14.9587 10.0375 14.9587 9.8175C14.9587 9.5975 15.0413 9.405 15.2066 9.24C15.3719 9.075 15.5647 8.9925 15.7851 8.9925C16.0055 8.9925 16.1983 9.075 16.3636 9.24C16.5289 9.405 16.6116 9.5975 16.6116 9.8175C16.6116 10.0375 16.5289 10.23 16.3636 10.395C16.1983 10.56 16.0055 10.6425 15.7851 10.6425ZM2.86501 20.35H14.2149V17.325H1.65289V19.1125C1.65289 19.4792 1.76768 19.7771 1.99725 20.0063C2.22681 20.2354 2.51607 20.35 2.86501 20.35Z" fill="#cccccc"/>
</svg>
