<svg width="20" height="20" viewBox="0 0 20 20" fill="current"  xmlns="http://www.w3.org/2000/svg">
<path d="M7.69382 16.7716L7.64787 16.4822L7.37285 16.3808C7.08661 16.2754 6.77849 16.1297 6.44807 15.9409C6.11776 15.7521 5.8326 15.5588 5.5903 15.3619L5.3493 15.1661L5.06694 15.2953L2.5338 16.4546L0.654574 13.1407L2.9952 11.4286L3.259 11.2356L3.18809 10.9165C3.16243 10.8011 3.14439 10.6601 3.13703 10.4908C3.12893 10.3045 3.125 10.1411 3.125 10C3.125 9.85891 3.12893 9.69553 3.13703 9.50922C3.14439 9.3399 3.16243 9.19895 3.18809 9.08347L3.259 8.76441L2.9952 8.57144L0.654574 6.85932L2.5338 3.54542L5.06694 4.70465L5.3493 4.83387L5.5903 4.63806C5.8326 4.44119 6.11776 4.24787 6.44807 4.05912C6.77349 3.87317 7.07412 3.73909 7.35057 3.65179L7.64576 3.55857L7.69391 3.25278L8.12742 0.5H11.8731L12.3062 3.22838L12.3521 3.51785L12.6271 3.61917C12.9184 3.72646 13.2347 3.87048 13.5767 4.05339C13.9037 4.22833 14.1708 4.41671 14.3838 4.61553L14.6286 4.84398L14.9331 4.70465L17.4662 3.54542L19.3427 6.85455L17.0097 8.51788L16.7462 8.70574L16.8097 9.02306C16.8374 9.16159 16.8556 9.31499 16.863 9.48422C16.871 9.6697 16.875 9.84156 16.875 10C16.875 10.1584 16.871 10.3258 16.863 10.5023C16.8557 10.6623 16.8377 10.812 16.8097 10.9519L16.7467 11.2671L17.0073 11.4553L19.3441 13.143L17.4662 16.4546L14.9331 15.2953L14.6507 15.1661L14.4097 15.3619C14.163 15.5624 13.8777 15.7621 13.5522 15.9606C13.2417 16.1499 12.9431 16.285 12.6563 16.3711L12.3554 16.4614L12.3062 16.7716L11.8731 19.5H8.12689L7.69382 16.7716ZM8.40386 18.562L8.45861 19H8.9H11.1H11.5414L11.5961 18.562L11.9046 16.0946C12.3779 15.9524 12.8307 15.7569 13.2621 15.5082C13.6919 15.2605 14.0896 14.9712 14.4547 14.6405L16.801 15.6587L17.2169 15.8392L17.4371 15.4428L18.4371 13.6428L18.6511 13.2577L18.2959 12.9969L16.2083 11.4646C16.2463 11.2791 16.2792 11.0951 16.3069 10.9124C16.3524 10.6122 16.375 10.3079 16.375 10C16.375 9.69701 16.3572 9.39775 16.3214 9.10233C16.2982 8.91136 16.2643 8.71955 16.2198 8.52699L18.2959 7.00307L18.6511 6.74234L18.4371 6.35718L17.4371 4.55718L17.2169 4.16083L16.801 4.34133L14.4738 5.35122C14.1215 4.99655 13.7329 4.69059 13.3083 4.43441C12.8731 4.17176 12.403 3.98529 11.9006 3.874L11.5961 1.43798L11.5414 1H11.1H8.9H8.45861L8.40386 1.43798L8.09688 3.89385C7.6098 4.02505 7.14805 4.21599 6.71285 4.46678C6.28164 4.71528 5.88813 5.01127 5.53308 5.35421L3.19905 4.34133L2.78312 4.16083L2.56292 4.55718L1.56292 6.35718L1.34894 6.74234L1.70413 7.00307L3.79172 8.53544C3.75369 8.72088 3.72082 8.90494 3.69314 9.0876C3.64765 9.38785 3.625 9.69206 3.625 10C3.625 10.3079 3.64765 10.6122 3.69314 10.9124C3.72082 11.0951 3.75369 11.2791 3.79172 11.4646L1.70413 12.9969L1.34894 13.2577L1.56292 13.6428L2.56292 15.4428L2.78312 15.8392L3.19905 15.6587L5.54533 14.6405C5.91039 14.9712 6.30807 15.2605 6.73785 15.5082C7.16933 15.7569 7.62209 15.9524 8.09544 16.0946L8.40386 18.562ZM11.9464 11.9464C11.4074 12.4855 10.7681 12.75 10 12.75C9.23189 12.75 8.59261 12.4855 8.05355 11.9464C7.5145 11.4074 7.25 10.7681 7.25 10C7.25 9.23189 7.5145 8.59261 8.05355 8.05355C8.59261 7.5145 9.23189 7.25 10 7.25C10.7681 7.25 11.4074 7.5145 11.9464 8.05355C12.4855 8.59261 12.75 9.23189 12.75 10C12.75 10.7681 12.4855 11.4074 11.9464 11.9464ZM8.40895 11.5911C8.84441 12.0265 9.3841 12.25 10 12.25C10.6159 12.25 11.1556 12.0265 11.5911 11.5911C12.0265 11.1556 12.25 10.6159 12.25 10C12.25 9.3841 12.0265 8.84441 11.5911 8.40895C11.1556 7.97348 10.6159 7.75 10 7.75C9.3841 7.75 8.84441 7.97348 8.40895 8.40895C7.97348 8.84441 7.75 9.3841 7.75 10C7.75 10.6159 7.97348 11.1556 8.40895 11.5911Z" fill="#CCCCCC" stroke="current"/>
</svg>
