<svg width="28" height="13" viewBox="0 0 28 13" stroke="current" fill="current" xmlns="http://www.w3.org/2000/svg">
<path d="M23.3577 3.68824C23.3577 2.99946 22.7993 2.4411 22.1105 2.4411V2.4411C21.4218 2.4411 20.8634 2.99946 20.8634 3.68824V9.12021C20.8634 9.80899 21.4218 10.3673 22.1105 10.3673V10.3673C22.7993 10.3673 23.3577 9.80899 23.3577 9.12021V3.68824Z" stroke="current" stroke-width="1.5"/>
<path d="M27 2.72223C27 1.77107 26.2289 1 25.2778 1V1C24.3266 1 23.5555 1.77107 23.5555 2.72224V9.61119C23.5555 10.5624 24.3266 11.3334 25.2778 11.3334V11.3334C26.2289 11.3334 27 10.5623 27 9.61118V2.72223Z" stroke="current" stroke-width="1.5"/>
<path d="M4.98706 3.68824C4.98706 2.99946 5.54542 2.4411 6.2342 2.4411V2.4411C6.92297 2.4411 7.48133 2.99946 7.48133 3.68824V9.12021C7.48133 9.80899 6.92297 10.3673 6.2342 10.3673V10.3673C5.54542 10.3673 4.98706 9.80899 4.98706 9.12021V3.68824Z" stroke="current" stroke-width="1.5"/>
<path d="M1.34473 2.72223C1.34473 1.77107 2.1158 1 3.06696 1V1C4.01813 1 4.7892 1.77107 4.7892 2.72224V9.61119C4.7892 10.5624 4.01813 11.3334 3.06696 11.3334V11.3334C2.1158 11.3334 1.34473 10.5623 1.34473 9.61118V2.72223Z" stroke="current" stroke-width="1.5"/>
<rect x="8.23364" y="5.59265" width="12.6297" height="2.29632" stroke="current" stroke-width="1.5"/>
</svg>
